<?xml version="1.0" encoding="UTF-8"?>
<svg id="Capa_2" data-name="Capa 2" xmlns="http://www.w3.org/2000/svg" viewBox="0 0 65.1 83.05">
  <defs>
    <style>
      .cls-1 {
        fill: #fdf398;
      }

      .cls-2 {
        fill: #ee751c;
      }
    </style>
  </defs>
  <g id="Capa_1-2" data-name="Capa 1">
    <g>
      <path class="cls-2" d="M14.7,37.64c.74-7.01,5.93-11.78,10.12-16.69s4.77-10.99,1.26-16.32c-.54-.81-2.38-2.59-2.4-3.33C23.64.09,24.75-.03,25.7,0c15.93.57,25.12,11.9,23.43,27.6-.41,3.77-3.88,13.72,2.04,14.58,1.83.27,3.37-.39,4.54-1.78,1.67-1.98,1.56-5.36,4.4-1.8,7.35,9.22,6.21,23.61-.94,32.59-14.14,17.77-43.69,14.99-54.7-4.64-6.73-11.99-5.9-27.66,2.81-38.43.63-.78,3-3.49,3.74-3.88.6-.32,1.43-.12,1.71.5.34.75-.29,4.86-.26,6.15.04,2.49.52,6.93,1.87,9.03.11.17-.02.31.39.22.06-.81-.08-1.72,0-2.51ZM39.68,49.26c-3.14-4.97-3.21-11.19-1.71-16.72.17-.64,1.68-3.64.38-3.44-.58.09-4.74,3.64-5.4,4.3-5.21,5.19-9.7,14.81-7.82,22.18.36,1.43,2.66,5.77.77,6.58-2.32,1-4.4-2.9-5.18-4.6-.28-.62-.45-2.27-1.45-1.51-.61.46-1.55,3.08-1.81,3.9-1.49,4.75-1.59,9.99,1.05,14.36,7.6,4.89,16.2,6.26,24.78,2.99.55-.21,3.34-1.38,3.6-1.64.4-.38,1.51-2.94,1.73-3.59,3.49-10.57-4.18-15.29-8.94-22.82Z"/>
      <path class="cls-1" d="M39.68,49.26c4.75,7.53,12.43,12.26,8.94,22.82-.21.65-1.33,3.21-1.73,3.59-.26.25-3.05,1.43-3.6,1.64-8.58,3.27-17.17,1.89-24.78-2.99-2.64-4.37-2.54-9.6-1.05-14.36.26-.82,1.2-3.44,1.81-3.9,1-.75,1.17.9,1.45,1.51.78,1.7,2.85,5.59,5.18,4.6,1.89-.81-.41-5.15-.77-6.58-1.88-7.37,2.61-16.99,7.82-22.18.66-.66,4.82-4.21,5.4-4.3,1.3-.21-.21,2.79-.38,3.44-1.5,5.53-1.43,11.75,1.71,16.72Z"/>
    </g>
  </g>
</svg>