<svg xmlns="http://www.w3.org/2000/svg" viewBox="0 0 267.82 267.82"><defs><style>.cls-1{fill:#3ab3ff;}.cls-2{fill:#fff;}</style></defs><title>Recurso 3</title><g id="Capa_2" data-name="Capa 2"><g id="Capa_1-2" data-name="Capa 1"><rect class="cls-1" width="267.82" height="267.82" rx="53.2"/><path class="cls-2" d="M137.29,219.18a62.81,62.81,0,0,1-18.68,11.93,57,57,0,0,1-22,4.3A64.21,64.21,0,0,1,52,217.62a62.58,62.58,0,0,1-13.77-19.68,59.25,59.25,0,0,1-5.1-24.63,63.77,63.77,0,0,1,7.79-30.66A61.55,61.55,0,0,1,50,130.15a57.3,57.3,0,0,1,11.94-9.77,58.54,58.54,0,0,1,14.34-6.32,57.89,57.89,0,0,1,16.33-2.27,55.42,55.42,0,0,1,15.19,2.08,59,59,0,0,1,13.83,5.85,59.62,59.62,0,0,1,11.84,9.06,61.54,61.54,0,0,1,9.25,11.56,56.24,56.24,0,0,1,6,13.4,51.28,51.28,0,0,1,2.12,14.67q0,4.91-.14,8a9.1,9.1,0,0,1-1.47,4.95,7.08,7.08,0,0,1-4.38,2.55,43.12,43.12,0,0,1-9,.71H67.84a23.44,23.44,0,0,0,3.83,10.09,23.85,23.85,0,0,0,6.65,6.47,26.55,26.55,0,0,0,8,3.44,33.4,33.4,0,0,0,8,1,35.41,35.41,0,0,0,7-.71,50.59,50.59,0,0,0,6.94-1.88,39.67,39.67,0,0,0,6.13-2.74,20,20,0,0,0,4.48-3.26,21,21,0,0,1,2.6-1.84,4.69,4.69,0,0,1,2.31-.61,4.47,4.47,0,0,1,2.5.85,20.51,20.51,0,0,1,2.88,2.45l10,11.33a6,6,0,0,1,1.32,2.21,7.32,7.32,0,0,1,.29,2,5.25,5.25,0,0,1-1,3.26A12,12,0,0,1,137.29,219.18ZM91.9,140.57A18.14,18.14,0,0,0,84.78,142,27.28,27.28,0,0,0,78.32,146,34.85,34.85,0,0,0,69,157.84H117.2a56.6,56.6,0,0,0-4.3-6.79,29.2,29.2,0,0,0-5.28-5.48,22.92,22.92,0,0,0-6.79-3.68A27.4,27.4,0,0,0,91.9,140.57Z"/><rect class="cls-2" x="130.73" y="66.66" width="41.25" height="41.25" rx="4.2"/><rect class="cls-2" x="183.19" y="39.83" width="41.25" height="41.25" rx="2.98"/></g></g></svg>